<?xml version="1.0" encoding="UTF-8"?>
<!DOCTYPE svg PUBLIC "-//W3C//DTD SVG 1.1//EN" "http://www.w3.org/Graphics/SVG/1.1/DTD/svg11.dtd">
<svg xmlns="http://www.w3.org/2000/svg" version="1.1" width="512px" height="512px" style="shape-rendering:geometricPrecision; text-rendering:geometricPrecision; image-rendering:optimizeQuality; fill-rule:evenodd; clip-rule:evenodd" xmlns:xlink="http://www.w3.org/1999/xlink">
<g><path style="opacity:0.966" fill="#000101" d="M 409.5,-0.5 C 412.833,-0.5 416.167,-0.5 419.5,-0.5C 426.446,8.38724 432.112,18.0539 436.5,28.5C 436.101,30.1966 435.601,31.8632 435,33.5C 432.861,36.0009 430.361,38.1676 427.5,40C 413.669,47.7477 400.002,55.7477 386.5,64C 388.973,73.5274 385.307,77.194 375.5,75C 373.983,73.3149 372.316,71.8149 370.5,70.5C 368.228,71.4411 366.228,72.7745 364.5,74.5C 368.496,83.9868 371.996,93.6534 375,103.5C 379.233,124.242 373.733,141.909 358.5,156.5C 372.199,179.036 385.699,201.703 399,224.5C 413.032,225.35 424.699,231.016 434,241.5C 442.731,255.239 451.065,269.239 459,283.5C 459.667,286.167 459.667,288.833 459,291.5C 458.292,292.381 457.458,293.047 456.5,293.5C 451.834,295.531 448.001,294.531 445,290.5C 438,278.5 431,266.5 424,254.5C 419.835,248.001 414.002,243.834 406.5,242C 399.685,241.993 393.018,241.16 386.5,239.5C 384.303,239.848 382.47,240.848 381,242.5C 380.587,245.232 379.92,247.899 379,250.5C 371.131,261.342 370.464,272.675 377,284.5C 391.667,309.167 406.333,333.833 421,358.5C 422.775,361.044 424.608,361.044 426.5,358.5C 427.583,357.635 427.749,356.635 427,355.5C 411.667,329.5 396.333,303.5 381,277.5C 376.29,262.418 381.457,252.585 396.5,248C 403.219,247.017 409.219,248.683 414.5,253C 431.361,280.518 448.195,308.018 465,335.5C 467.214,335.154 468.714,333.988 469.5,332C 466.604,327.211 464.27,322.211 462.5,317C 462.667,315.833 462.833,314.667 463,313.5C 464.376,312.295 465.542,310.962 466.5,309.5C 472.434,308.587 476.6,310.921 479,316.5C 482.594,321.687 485.094,327.354 486.5,333.5C 486.17,336.324 485.336,338.991 484,341.5C 480.77,344.531 477.27,347.197 473.5,349.5C 483.667,367.167 493.833,384.833 504,402.5C 506.57,418.759 499.736,428.092 483.5,430.5C 476.438,430.428 470.604,427.761 466,422.5C 455.833,405.5 445.667,388.5 435.5,371.5C 431.433,374.45 426.933,376.45 422,377.5C 416.906,376.956 412.906,374.622 410,370.5C 393.081,342.331 376.415,313.998 360,285.5C 355.03,272.456 355.863,259.789 362.5,247.5C 361.5,246.167 360.5,244.833 359.5,243.5C 339.677,264.824 320.011,286.324 300.5,308C 297.408,308.736 294.408,308.569 291.5,307.5C 289.12,303.644 288.954,299.644 291,295.5C 313.184,271.617 335.018,247.45 356.5,223C 358.695,221.627 361.029,221.294 363.5,222C 366.505,224.505 369.172,227.339 371.5,230.5C 374.884,228.813 377.884,226.647 380.5,224C 369.41,204.426 357.743,185.259 345.5,166.5C 342.769,168.192 340.102,169.858 337.5,171.5C 336.903,171.735 336.57,172.235 336.5,173C 339.881,176.928 341.048,181.428 340,186.5C 338.833,187.667 337.667,188.833 336.5,190C 287.998,220.083 239.665,250.416 191.5,281C 187.438,284.081 183.271,284.247 179,281.5C 176.017,283.494 173.017,285.494 170,287.5C 169.997,290.032 170.497,292.532 171.5,295C 171.204,296.888 170.704,298.722 170,300.5C 148.25,335.669 126.25,370.669 104,405.5C 103.352,411.182 105.852,414.016 111.5,414C 140.827,401.997 169.827,389.497 198.5,376.5C 196.827,373.131 195.16,369.798 193.5,366.5C 178.718,372.391 164.052,378.557 149.5,385C 139.431,386.268 135.931,382.102 139,372.5C 150.667,353.833 162.333,335.167 174,316.5C 178.37,312.759 182.87,312.593 187.5,316C 192.21,323.253 197.043,330.42 202,337.5C 205.026,334.974 208.193,332.64 211.5,330.5C 205.333,320.833 199.167,311.167 193,301.5C 192.041,297.579 193.208,294.412 196.5,292C 241.5,263.667 286.5,235.333 331.5,207C 337.044,204.219 341.544,205.386 345,210.5C 345.755,213.303 345.422,215.97 344,218.5C 310.167,256.333 276.333,294.167 242.5,332C 243.373,333.045 244.373,333.878 245.5,334.5C 247.456,336.114 249.456,337.781 251.5,339.5C 257.323,333.509 262.989,327.343 268.5,321C 272.237,319.111 275.904,319.278 279.5,321.5C 281.745,324.733 281.912,328.067 280,331.5C 272.667,339.5 265.333,347.5 258,355.5C 258.443,359.697 257.943,363.863 256.5,368C 263.216,372.358 270.216,376.191 277.5,379.5C 286.605,376.932 295.772,374.599 305,372.5C 307.634,372.934 310.134,373.767 312.5,375C 316.633,380.761 320.133,386.927 323,393.5C 324.805,401.698 321.638,406.865 313.5,409C 299.87,412.658 286.203,416.158 272.5,419.5C 268.472,419.437 265.305,417.771 263,414.5C 259.028,408.223 255.862,401.556 253.5,394.5C 254.014,391.789 255.014,389.289 256.5,387C 251.83,381.732 247.497,381.732 243.5,387C 233.694,391.915 223.527,392.749 213,389.5C 218.15,444.689 195.317,483.522 144.5,506C 137.414,508.02 130.414,509.853 123.5,511.5C 114.167,511.5 104.833,511.5 95.5,511.5C 45.7259,501.558 16.2259,471.558 7,421.5C 3.5427,370.566 24.7094,334.066 70.5,312C 94.8395,302.675 119.339,302.175 144,310.5C 147.962,305.942 151.462,300.942 154.5,295.5C 148.402,288.354 149.235,282.354 157,277.5C 157.749,276.365 157.583,275.365 156.5,274.5C 148.034,282.801 138.034,288.301 126.5,291C 112.357,292.178 101.191,287.011 93,275.5C 87.3415,265.441 88.8415,256.608 97.5,249C 118.675,234.58 139.675,219.913 160.5,205C 177.834,199.67 188.834,205.837 193.5,223.5C 193.17,226.324 192.336,228.991 191,231.5C 185.114,236.387 178.947,240.887 172.5,245C 168.743,248.086 165.743,251.752 163.5,256C 166.211,259.922 169.045,263.756 172,267.5C 176.478,263.065 181.478,262.398 187,265.5C 232.167,237 277.333,208.5 322.5,180C 321.975,179.308 321.308,178.808 320.5,178.5C 301.515,185.336 283.848,182.836 267.5,171C 259.667,162.5 251.833,154 244,145.5C 241.833,147 239.667,148.5 237.5,150C 240.099,153.933 240.099,157.933 237.5,162C 232.837,164.262 228.504,163.762 224.5,160.5C 209.5,169.333 194.5,178.167 179.5,187C 175.556,187.99 171.889,187.49 168.5,185.5C 163.415,177.666 158.582,169.666 154,161.5C 152.703,156.883 153.87,153.05 157.5,150C 172.167,141.333 186.833,132.667 201.5,124C 202.288,120.924 202.788,117.758 203,114.5C 208.837,109.042 214.004,109.709 218.5,116.5C 225.297,111.869 232.63,108.369 240.5,106C 247.077,105.007 253.41,105.84 259.5,108.5C 269.804,102.1 280.304,96.0998 291,90.5C 293.878,90.8306 296.044,92.164 297.5,94.5C 299.286,98.5064 298.62,102.006 295.5,105C 285.33,111.252 274.997,117.252 264.5,123C 256.5,122.667 248.5,122.333 240.5,122C 235.334,124.748 230.334,127.748 225.5,131C 226.743,132.154 227.743,133.488 228.5,135C 229.5,135.667 230.5,135.667 231.5,135C 235.5,132.667 239.5,130.333 243.5,128C 245.167,127.333 246.833,127.333 248.5,128C 256.347,135.182 263.514,143.015 270,151.5C 282.231,166.242 297.397,170.409 315.5,164C 314.174,161.842 312.507,160.008 310.5,158.5C 300.903,161.895 291.903,160.728 283.5,155C 278.023,149.854 272.856,144.354 268,138.5C 265.393,133.544 266.56,129.711 271.5,127C 292.833,114.333 314.167,101.667 335.5,89C 339.121,86.9103 342.621,87.077 346,89.5C 351.972,99.4028 354.639,110.069 354,121.5C 352.137,128.228 348.97,134.228 344.5,139.5C 345.098,140.795 345.598,142.128 346,143.5C 346.718,144.451 347.551,144.617 348.5,144C 359.092,133.632 362.925,121.132 360,106.5C 356.393,95.6783 352.393,85.0116 348,74.5C 346.902,70.4948 347.735,66.9948 350.5,64C 354.929,61.8977 359.095,59.3977 363,56.5C 363.308,52.4784 361.474,50.9784 357.5,52C 352.224,54.8879 347.391,58.3879 343,62.5C 341.032,66.9601 339.698,71.6268 339,76.5C 334.56,82.7282 328.56,86.7282 321,88.5C 318.268,87.5514 315.768,86.218 313.5,84.5C 313.211,81.3508 313.711,78.3508 315,75.5C 318.082,73.375 321.249,71.375 324.5,69.5C 325.576,59.8462 329.91,52.0129 337.5,46C 342.253,43.5417 346.753,40.7084 351,37.5C 347.43,27.4676 350.93,22.9676 361.5,24C 362.931,24.4652 364.097,25.2986 365,26.5C 380.005,17.6368 394.838,8.63676 409.5,-0.5 Z M 335.5,106.5 C 339.742,113.344 339.409,120.01 334.5,126.5C 326.101,129.866 318.101,134.033 310.5,139C 304.402,145.84 297.569,146.34 290,140.5C 289.365,139.034 288.531,137.7 287.5,136.5C 287.709,135.914 288.043,135.414 288.5,135C 304.563,125.977 320.23,116.477 335.5,106.5 Z M 294.5,249.5 C 273.542,273.629 252.375,297.629 231,321.5C 229.887,323.329 228.387,324.163 226.5,324C 221.128,316.758 216.128,309.258 211.5,301.5C 238.718,283.394 266.385,266.061 294.5,249.5 Z M 96.5,348.5 C 98.1667,348.5 99.8333,348.5 101.5,348.5C 102.955,356.155 104.955,363.655 107.5,371C 105.417,375.027 102.75,378.527 99.5,381.5C 97.8129,381.24 96.3129,380.573 95,379.5C 92.6544,370.45 90.1544,361.45 87.5,352.5C 90.4121,350.76 93.4121,349.427 96.5,348.5 Z M 117.5,349.5 C 118.601,348.402 119.934,348.235 121.5,349C 120.299,349.903 119.465,351.069 119,352.5C 118.768,351.263 118.268,350.263 117.5,349.5 Z M 71.5,360.5 C 72.9311,360.881 73.7645,361.881 74,363.5C 75.3244,367.446 75.9911,371.446 76,375.5C 71.9283,374.106 67.7616,372.94 63.5,372C 63.0426,371.586 62.7093,371.086 62.5,370.5C 65.5222,367.147 68.5222,363.813 71.5,360.5 Z M 53.5,386.5 C 62.9245,388.418 72.2579,390.752 81.5,393.5C 85.2796,399.837 83.7796,404.17 77,406.5C 67.7699,404.234 58.6033,401.734 49.5,399C 50.5313,394.739 51.8646,390.573 53.5,386.5 Z M 151.5,413.5 C 157.614,413.863 163.614,414.863 169.5,416.5C 169.183,421.452 167.85,426.118 165.5,430.5C 156.288,427.906 147.121,425.24 138,422.5C 137.251,421.365 137.417,420.365 138.5,419.5C 143.105,417.865 147.438,415.865 151.5,413.5 Z M 49.5,416.5 C 54.7031,417.051 59.7031,418.384 64.5,420.5C 61.1824,424.318 57.6824,427.985 54,431.5C 52.033,426.63 50.533,421.63 49.5,416.5 Z M 82.5,425.5 C 85.4802,425.62 88.3135,426.287 91,427.5C 91.995,430.126 92.3283,432.793 92,435.5C 85.3333,442.167 78.6667,448.833 72,455.5C 68.8333,452.333 65.6667,449.167 62.5,446C 69.3693,439.298 76.036,432.465 82.5,425.5 Z M 115.5,434.5 C 118.518,434.704 121.518,435.037 124.5,435.5C 126.673,444.524 129.006,453.524 131.5,462.5C 131.392,463.442 131.059,464.275 130.5,465C 126.695,466.38 122.862,467.547 119,468.5C 116.266,459.397 113.766,450.23 111.5,441C 112.205,438.458 113.539,436.292 115.5,434.5 Z M 142.5,442.5 C 147.454,442.135 152.454,442.969 157.5,445C 154.687,448.981 151.353,452.481 147.5,455.5C 145.367,451.264 143.701,446.931 142.5,442.5 Z M 96.5,453.5 C 99.6641,457.839 101.164,462.839 101,468.5C 96.0723,467.392 91.239,465.892 86.5,464C 90.0374,460.631 93.3707,457.131 96.5,453.5 Z"/></g>
<g><path style="opacity:1" fill="#404040" d="M 411.5,16.5 C 414.303,19.4167 416.637,22.75 418.5,26.5C 405.429,34.8977 392.095,42.8977 378.5,50.5C 375.822,47.4664 373.989,44.1331 373,40.5C 385.981,32.6002 398.815,24.6002 411.5,16.5 Z"/></g>
<g><path style="opacity:0.996" fill="#b6b6b6" d="M 297.5,94.5 C 303.122,91.5281 308.455,88.1947 313.5,84.5C 315.768,86.218 318.268,87.5514 321,88.5C 328.56,86.7282 334.56,82.7282 339,76.5C 339.698,71.6268 341.032,66.9601 343,62.5C 347.391,58.3879 352.224,54.8879 357.5,52C 361.474,50.9784 363.308,52.4784 363,56.5C 359.095,59.3977 354.929,61.8977 350.5,64C 347.735,66.9948 346.902,70.4948 348,74.5C 352.393,85.0116 356.393,95.6783 360,106.5C 362.925,121.132 359.092,133.632 348.5,144C 347.551,144.617 346.718,144.451 346,143.5C 345.598,142.128 345.098,140.795 344.5,139.5C 348.97,134.228 352.137,128.228 354,121.5C 354.639,110.069 351.972,99.4028 346,89.5C 342.621,87.077 339.121,86.9103 335.5,89C 314.167,101.667 292.833,114.333 271.5,127C 266.56,129.711 265.393,133.544 268,138.5C 272.856,144.354 278.023,149.854 283.5,155C 291.903,160.728 300.903,161.895 310.5,158.5C 312.507,160.008 314.174,161.842 315.5,164C 297.397,170.409 282.231,166.242 270,151.5C 263.514,143.015 256.347,135.182 248.5,128C 246.833,127.333 245.167,127.333 243.5,128C 239.5,130.333 235.5,132.667 231.5,135C 230.5,135.667 229.5,135.667 228.5,135C 227.743,133.488 226.743,132.154 225.5,131C 230.334,127.748 235.334,124.748 240.5,122C 248.5,122.333 256.5,122.667 264.5,123C 274.997,117.252 285.33,111.252 295.5,105C 298.62,102.006 299.286,98.5064 297.5,94.5 Z M 335.5,106.5 C 320.23,116.477 304.563,125.977 288.5,135C 288.043,135.414 287.709,135.914 287.5,136.5C 288.531,137.7 289.365,139.034 290,140.5C 297.569,146.34 304.402,145.84 310.5,139C 318.101,134.033 326.101,129.866 334.5,126.5C 339.409,120.01 339.742,113.344 335.5,106.5 Z"/></g>
<g><path style="opacity:1" fill="#404040" d="M 209.5,136.5 C 211.017,136.511 212.184,137.177 213,138.5C 214.123,141.249 215.623,143.749 217.5,146C 204.4,153.966 191.233,161.799 178,169.5C 174.945,167.258 172.778,164.258 171.5,160.5C 171.709,159.914 172.043,159.414 172.5,159C 185.23,151.977 197.563,144.477 209.5,136.5 Z"/></g>
<g><path style="opacity:1" fill="#3f3f3f" d="M 329.5,145.5 C 331.913,147.985 333.58,150.985 334.5,154.5C 333.564,155.974 332.23,156.974 330.5,157.5C 327.644,155.478 325.311,152.978 323.5,150C 325.684,148.637 327.684,147.137 329.5,145.5 Z"/></g>
<g><path style="opacity:1" fill="#00776a" d="M 291.5,307.5 C 287.155,311.847 283.155,316.514 279.5,321.5C 275.904,319.278 272.237,319.111 268.5,321C 262.989,327.343 257.323,333.509 251.5,339.5C 249.456,337.781 247.456,336.114 245.5,334.5C 278.837,298.661 311.671,262.327 344,225.5C 351.773,212.145 352.439,198.479 346,184.5C 343.64,179.76 340.807,175.426 337.5,171.5C 340.102,169.858 342.769,168.192 345.5,166.5C 357.743,185.259 369.41,204.426 380.5,224C 377.884,226.647 374.884,228.813 371.5,230.5C 369.172,227.339 366.505,224.505 363.5,222C 361.029,221.294 358.695,221.627 356.5,223C 335.018,247.45 313.184,271.617 291,295.5C 288.954,299.644 289.12,303.644 291.5,307.5 Z"/></g>
<g><path style="opacity:1" fill="#25a296" d="M 337.5,171.5 C 340.807,175.426 343.64,179.76 346,184.5C 352.439,198.479 351.773,212.145 344,225.5C 311.671,262.327 278.837,298.661 245.5,334.5C 244.373,333.878 243.373,333.045 242.5,332C 276.333,294.167 310.167,256.333 344,218.5C 345.422,215.97 345.755,213.303 345,210.5C 341.544,205.386 337.044,204.219 331.5,207C 286.5,235.333 241.5,263.667 196.5,292C 193.208,294.412 192.041,297.579 193,301.5C 199.167,311.167 205.333,320.833 211.5,330.5C 208.193,332.64 205.026,334.974 202,337.5C 197.043,330.42 192.21,323.253 187.5,316C 182.87,312.593 178.37,312.759 174,316.5C 162.333,335.167 150.667,353.833 139,372.5C 135.931,382.102 139.431,386.268 149.5,385C 164.052,378.557 178.718,372.391 193.5,366.5C 195.16,369.798 196.827,373.131 198.5,376.5C 169.827,389.497 140.827,401.997 111.5,414C 105.852,414.016 103.352,411.182 104,405.5C 126.25,370.669 148.25,335.669 170,300.5C 170.704,298.722 171.204,296.888 171.5,295C 170.497,292.532 169.997,290.032 170,287.5C 173.017,285.494 176.017,283.494 179,281.5C 183.271,284.247 187.438,284.081 191.5,281C 239.665,250.416 287.998,220.083 336.5,190C 337.667,188.833 338.833,187.667 340,186.5C 341.048,181.428 339.881,176.928 336.5,173C 336.57,172.235 336.903,171.735 337.5,171.5 Z M 294.5,249.5 C 266.385,266.061 238.718,283.394 211.5,301.5C 216.128,309.258 221.128,316.758 226.5,324C 228.387,324.163 229.887,323.329 231,321.5C 252.375,297.629 273.542,273.629 294.5,249.5 Z"/></g>
<g><path style="opacity:1" fill="#414141" d="M 167.5,218.5 C 172.324,217.37 175.158,219.037 176,223.5C 164,230.167 154.667,239.5 148,251.5C 146.542,256.551 144.708,261.384 142.5,266C 138.5,268.667 134.5,271.333 130.5,274C 120.356,277.873 112.189,275.373 106,266.5C 105.175,264.299 105.675,262.466 107.5,261C 127.742,247.057 147.742,232.89 167.5,218.5 Z"/></g>
<g><path style="opacity:0.995" fill="#b6b6b6" d="M 456.5,293.5 C 459.472,299.122 462.805,304.455 466.5,309.5C 465.542,310.962 464.376,312.295 463,313.5C 462.833,314.667 462.667,315.833 462.5,317C 464.27,322.211 466.604,327.211 469.5,332C 468.714,333.988 467.214,335.154 465,335.5C 448.195,308.018 431.361,280.518 414.5,253C 409.219,248.683 403.219,247.017 396.5,248C 381.457,252.585 376.29,262.418 381,277.5C 396.333,303.5 411.667,329.5 427,355.5C 427.749,356.635 427.583,357.635 426.5,358.5C 424.608,361.044 422.775,361.044 421,358.5C 406.333,333.833 391.667,309.167 377,284.5C 370.464,272.675 371.131,261.342 379,250.5C 379.92,247.899 380.587,245.232 381,242.5C 382.47,240.848 384.303,239.848 386.5,239.5C 393.018,241.16 399.685,241.993 406.5,242C 414.002,243.834 419.835,248.001 424,254.5C 431,266.5 438,278.5 445,290.5C 448.001,294.531 451.834,295.531 456.5,293.5 Z"/></g>
<g><path style="opacity:1" fill="#404040" d="M 397.5,262.5 C 401.273,261.822 404.106,263.156 406,266.5C 433.268,313.428 460.935,360.094 489,406.5C 489.494,413.324 486.328,415.824 479.5,414C 451.207,366.583 423.041,319.083 395,271.5C 393.927,267.9 394.76,264.9 397.5,262.5 Z"/></g>
<g><path style="opacity:1" fill="#404040" d="M 95.5,320.5 C 109.038,319.699 122.372,320.865 135.5,324C 135.957,324.414 136.291,324.914 136.5,325.5C 134.916,329.376 132.416,332.376 129,334.5C 92.7301,327.031 64.3967,338.698 44,369.5C 26.3527,404.78 31.186,436.614 58.5,465C 91.2995,490.269 124.633,490.936 158.5,467C 179.003,448.81 188.003,425.976 185.5,398.5C 189.284,397.571 192.951,396.238 196.5,394.5C 200.921,433.152 186.921,462.985 154.5,484C 109.191,506.272 70.358,498.106 38,459.5C 11.6898,415.536 16.8564,375.703 53.5,340C 66.1828,330.49 80.1828,323.99 95.5,320.5 Z M 151.5,413.5 C 147.438,415.865 143.105,417.865 138.5,419.5C 137.417,420.365 137.251,421.365 138,422.5C 147.121,425.24 156.288,427.906 165.5,430.5C 167.85,426.118 169.183,421.452 169.5,416.5C 163.614,414.863 157.614,413.863 151.5,413.5 Z M 49.5,416.5 C 50.533,421.63 52.033,426.63 54,431.5C 57.6824,427.985 61.1824,424.318 64.5,420.5C 59.7031,418.384 54.7031,417.051 49.5,416.5 Z M 82.5,425.5 C 76.036,432.465 69.3693,439.298 62.5,446C 65.6667,449.167 68.8333,452.333 72,455.5C 78.6667,448.833 85.3333,442.167 92,435.5C 92.3283,432.793 91.995,430.126 91,427.5C 88.3135,426.287 85.4802,425.62 82.5,425.5 Z M 115.5,434.5 C 113.539,436.292 112.205,438.458 111.5,441C 113.766,450.23 116.266,459.397 119,468.5C 122.862,467.547 126.695,466.38 130.5,465C 131.059,464.275 131.392,463.442 131.5,462.5C 129.006,453.524 126.673,444.524 124.5,435.5C 121.518,435.037 118.518,434.704 115.5,434.5 Z M 142.5,442.5 C 143.701,446.931 145.367,451.264 147.5,455.5C 151.353,452.481 154.687,448.981 157.5,445C 152.454,442.969 147.454,442.135 142.5,442.5 Z M 96.5,453.5 C 93.3707,457.131 90.0374,460.631 86.5,464C 91.239,465.892 96.0723,467.392 101,468.5C 101.164,462.839 99.6641,457.839 96.5,453.5 Z"/></g>
<g><path style="opacity:1" fill="#b6b6b6" d="M 228.5,342.5 C 230.948,346.089 230.948,349.422 228.5,352.5C 220.252,351.632 217.085,355.298 219,363.5C 220.039,364.71 221.206,365.71 222.5,366.5C 220.547,369.978 217.547,371.645 213.5,371.5C 205.035,359.432 207.368,349.932 220.5,343C 223.146,342.503 225.813,342.336 228.5,342.5 Z"/></g>
<g><path style="opacity:1" fill="#5c5c5c" d="M 228.5,342.5 C 237.634,345.127 242.134,351.127 242,360.5C 237.519,357.681 233.019,355.014 228.5,352.5C 230.948,349.422 230.948,346.089 228.5,342.5 Z"/></g>
<g><path style="opacity:1" fill="#3f3f3f" d="M 172.5,347.5 C 175.296,349.467 177.63,351.967 179.5,355C 176.407,357.102 173.074,358.935 169.5,360.5C 168.155,359.653 167.155,358.487 166.5,357C 168.636,353.89 170.636,350.723 172.5,347.5 Z"/></g>
<g><path style="opacity:1" fill="#5e5e5e" d="M 222.5,366.5 C 225.979,368.742 229.646,370.742 233.5,372.5C 234.833,373.167 234.833,373.833 233.5,374.5C 226.038,377.904 219.371,376.904 213.5,371.5C 217.547,371.645 220.547,369.978 222.5,366.5 Z"/></g>
<g><path style="opacity:1" fill="#3f3f3f" d="M 298.5,389.5 C 303.445,388.617 305.445,390.45 304.5,395C 295.003,397.582 285.503,400.082 276,402.5C 273.733,401.825 272.233,400.325 271.5,398C 280.467,394.843 289.467,392.01 298.5,389.5 Z"/></g>
</svg>
